<?xml version="1.0" encoding="utf-8"?>
<!-- Generator: Adobe Illustrator 26.0.2, SVG Export Plug-In . SVG Version: 6.00 Build 0)  -->
<svg version="1.1" id="_x37_d1857de-4e1d-4ad3-937b-baacafe47dc3"
	 xmlns="http://www.w3.org/2000/svg" xmlns:xlink="http://www.w3.org/1999/xlink" x="0px" y="0px" viewBox="0 0 1030 729.9"
	 style="enable-background:new 0 0 1030 729.9;" xml:space="preserve">
<style type="text/css">
	.st0{opacity:0.1;fill:#0D6EFD;enable-background:new    ;}
	.st1{fill:#F7DF1E;}
	.st2{fill:#714B4F;}
	.st3{opacity:0.1;enable-background:new    ;}
	.st4{fill:#E44D26;}
	.st5{fill:#F16529;}
	.st6{fill:#EBEBEB;}
	.st7{fill:#FFFFFF;}
	.st8{fill:#264DE4;}
	.st9{fill:#2965F1;}
	.st10{opacity:0.3;fill:#FFFFFF;enable-background:new    ;}
	.st11{fill:#0D6EFD;}
</style>
<path class="st0" d="M146.7,480.3c31.8,40.5,19.5,99.6-0.8,146.9c-6.8,15.8-14.4,32.6-11.6,49.6c3.5,20.8,22,36,41.5,44
	c35.5,14.7,78,11.2,110.6-9.1c28.2-17.5,48.4-46.1,77-62.8c48-28,109.1-17.4,161.2,1.9c36.9,13.7,77.2,31.4,113.8,17.1
	c25.8-10,43.6-34.5,53.3-60.4c4.7-12.5,8.1-26,17-36c5.3-5.9,12.3-10.1,19.4-13.6c65-32.2,147-15,210.1-50.7
	c42.6-24.1,69.9-69.6,82-117.1s10.7-97.2,7.6-146.1c-2.2-34.7-6.1-71.8-28.3-98.6c-23.5-28.4-63.8-38.9-100.2-33.5
	S830,136.7,801,159.3c-36.3,28.3-69.9,63.5-114.5,74.9c-30.3,7.8-62.3,3.5-93.6,2.1c-52.3-2.5-104.7,3-156.7,9
	c-49.8,5.8-100,12.1-147.4,28.3c-33.6,11.5-60.5,32.3-92.2,46.8c-20.7,9.5-43.2,12.1-62.8,24.2c-24.1,14.9-46.2,40.7-40,71
	C99.7,444.4,129.8,458.8,146.7,480.3z"/>
<g>
	<g>
		<path class="st1" d="M695.8,292.7H959v263.1H695.8V292.7z"/>
	</g>
	<path d="M765,512.6l20.1-12.2c3.9,6.9,7.4,12.7,15.9,12.7c8.1,0,13.2-3.2,13.2-15.5v-84.1h24.7v84.4c0,25.6-15,37.3-36.9,37.3
		C782.4,535.2,770.9,525,765,512.6 M852.5,510l20.1-11.7c5.3,8.7,12.2,15,24.4,15c10.2,0,16.8-5.1,16.8-12.2c0-8.5-6.7-11.5-18-16.4
		l-6.2-2.6c-17.8-7.6-29.7-17.1-29.7-37.3c0-18.5,14.1-32.7,36.2-32.7c15.7,0,27,5.5,35.2,19.8L912,444.2
		c-4.2-7.6-8.8-10.6-15.9-10.6c-7.2,0-11.8,4.6-11.8,10.6c0,7.4,4.6,10.4,15.2,15l6.2,2.6c21,9,32.9,18.2,32.9,38.9
		c0,22.3-17.5,34.4-41,34.4C874.5,535.2,859.7,524.2,852.5,510"/>
</g>
<g>
	<path class="st2" d="M177,418.3l-7.9,0.5l-4.2,0.3V409l5.5-1l3.4-0.6c0,0,10.5-31.1,20.6-25.5C204.5,387.6,177,418.3,177,418.3z"/>
	<path class="st3" d="M169,418.8l-4.2,0.3V409l5.5-1C168.4,410.5,168.5,415,169,418.8z"/>
	<path class="st4" d="M303.8,253.7L286,453.3l-80.1,22.2l-79.9-22.2l-17.8-199.6H303.8z"/>
	<path class="st5" d="M206,458.5l64.7-17.9L286,270H206V458.5z"/>
	<path class="st6" d="M171.4,319H206v-24.5h-61.4l0.6,6.6l6,67.5h54.8V344h-32.4L171.4,319z M177,380.8h-24.6l3.4,38.4l50.1,14h0.1
		v-25.5h-0.1l-27.3-7.4L177,380.8z"/>
	<path d="M126.5,199.4h12.4v12.3h11.4v-12.3h12.4v37.2h-12.4v-12.5h-11.4v12.5h-12.4V199.4z M179.1,211.8h-11v-12.3h34.4v12.3h-11
		v24.9h-12.4L179.1,211.8L179.1,211.8L179.1,211.8z M207.9,199.4h13l8,13.1l8-13.1h13v37.2h-12.4v-18.4l-8.6,13.2h-0.2l-8.6-13.2
		v18.4h-12.2V199.4z M256,199.4h12.4v24.9H286v12.3h-29.9L256,199.4L256,199.4z"/>
	<path class="st7" d="M206,368.5h30.1l-2.8,31.8l-27.3,7.4v25.5l50.2-13.9l0.4-4.1l5.8-64.5l0.6-6.6H206V368.5L206,368.5z
		 M206,318.9L206,318.9l59.1,0.1l0.5-5.5l1.2-12.4l0.6-6.6H206V318.9L206,318.9z"/>
</g>
<g>
	<path class="st8" d="M497.6,391.8l-82.9-23l-18.5-207.3h203.1l-18.5,207.3L497.6,391.8z"/>
	<path class="st9" d="M564.9,355.6l15.8-177.1h-83v195.7L564.9,355.6z"/>
	<path class="st6" d="M438.6,255.3l2.3,25.4h56.9v-25.4H438.6z M434,203.8l2.3,25.4h61.4v-25.4L434,203.8L434,203.8z M497.7,321.3
		h-0.1l-28.3-7.6l-1.8-20.3h-25.6l3.6,39.9l52.1,14.5h0.1L497.7,321.3z"/>
	<path d="M443.9,105.1h30.8V118h-17.9v12.9h17.9v12.9h-30.8V105.1z M480.9,105.1h30.8v11.2h-18v2.2h17.9v25.8h-30.8v-11.8h17.9v-2.2
		h-17.9L480.9,105.1L480.9,105.1z M517.9,105.1h30.8v11.2h-18v2.2h17.9v25.8h-30.8v-11.8h17.9v-2.2h-17.9v-25.2H517.9z"/>
	<path class="st7" d="M556.7,255.3l4.6-51.5h-63.7v25.4h35.8l-2.3,26h-33.5v25.4h31.3l-3,33l-28.3,7.7v26.5l52.1-14.5l0.4-4.3
		l6-66.9L556.7,255.3L556.7,255.3z"/>
</g>
<path class="st10" d="M332.9,672.4c0,1.9-0.3,3.9-0.7,5.8c0,0-44.2,3.2-58.1,2.1c-6.7-0.5-9.5-3-10-5.4c-0.6,2.7,1.8,6.3,10,7
	c13.9,1.1,58.1-2.1,58.1-2.1C332.8,677.4,333,674.9,332.9,672.4z"/>
<path class="st10" d="M351.6,678.8c0,1.9-0.3,3.9-0.7,5.8c0,0-44.2,3.2-58.1,2.1c-6.7-0.5-9.5-3-10-5.4c-0.6,2.7,1.8,6.3,10,7
	c13.9,1.1,58.1-2.1,58.1-2.1C351.4,683.8,351.6,681.3,351.6,678.8z"/>
<path class="st11" d="M427.4,480c1.8-1.5,3.2-3.5,3.8-5.8c0.5-2.3-0.5-5-2.7-5.9c-2.5-0.9-5.1,0.8-7.1,2.5s-4.3,3.7-6.9,3.3
	c2.7-2.5,4-6.2,3.2-9.8c-0.1-0.7-0.4-1.4-0.9-2c-1.4-1.5-3.8-0.8-5.5,0.3c-5.2,3.7-6.6,10.7-6.7,17.1c-0.5-2.3-0.1-4.7-0.1-7
	s-0.7-5-2.6-6.2c-1.2-0.7-2.6-1-4-1c-2.3-0.1-4.9,0.2-6.5,1.9c-2,2.1-1.5,5.7,0.3,8s4.4,3.8,6.8,5.4c1.9,1.2,3.6,2.7,4.8,4.6
	c0.1,0.3,0.3,0.5,0.4,0.8h14.6C421.6,484.6,424.6,482.5,427.4,480z"/>
<path class="st11" d="M251.4,588.6c2.3-2.2,4.5-4.7,5.2-7.8c0.7-3.1-0.7-6.8-3.6-8c-3.3-1.3-6.9,1-9.6,3.4s-5.8,5-9.3,4.5
	c3.7-3.4,5.4-8.4,4.4-13.3c-0.2-1-0.6-1.9-1.2-2.7c-1.8-2-5.2-1.1-7.4,0.4c-7,5-9,14.5-9,23.2c-0.7-3.1-0.1-6.3-0.1-9.5
	s-0.9-6.7-3.6-8.4c-1.7-0.9-3.6-1.3-5.5-1.3c-3.2-0.1-6.7,0.2-8.9,2.5c-2.7,2.9-2,7.7,0.4,10.9s5.9,5.2,9.2,7.3
	c2.6,1.6,4.9,3.7,6.5,6.2c0.2,0.4,0.4,0.7,0.5,1.1h19.9C243.6,594.9,247.7,592,251.4,588.6z"/>
</svg>
