<?xml version="1.0" encoding="utf-8"?>
<!-- Generator: Adobe Illustrator 26.0.2, SVG Export Plug-In . SVG Version: 6.00 Build 0)  -->
<svg version="1.1" id="a75d69e6-d07c-4db3-9c83-72b2470e5561"
	 xmlns="http://www.w3.org/2000/svg" xmlns:xlink="http://www.w3.org/1999/xlink" x="0px" y="0px" viewBox="0 0 1108 731.2"
	 style="enable-background:new 0 0 1108 731.2;" xml:space="preserve">
<style type="text/css">
	.st0{fill:#53C1DE;}
	.st1{fill:#FFFFFF;}
	.st2{fill:#F2F2F2;}
	.st3{opacity:3.000000e-02;enable-background:new    ;}
</style>
<path class="st0" d="M745.6,259c-6.6-2.3-13.3-4.4-20-6.3c1.1-4.5,2.1-9.1,3.1-13.6c15.1-73.5,5.2-132.7-28.6-152.2
	c-32.4-18.7-85.4,0.8-139,47.4c-5.3,4.6-10.4,9.3-15.5,14.2c-3.4-3.2-6.8-6.4-10.3-9.5C479.2,89.1,423,68.1,389.2,87.7
	c-32.4,18.8-42,74.4-28.4,144.1c1.3,6.9,2.9,13.8,4.6,20.6c-8,2.3-15.6,4.7-23,7.2c-65.8,22.9-107.8,58.9-107.8,96.2
	c0,38.5,45.1,77.1,113.6,100.6c5.6,1.9,11.2,3.6,16.8,5.3c-1.8,7.3-3.5,14.7-4.9,22.2c-13,68.5-2.8,122.8,29.5,141.5
	c33.4,19.3,89.4-0.5,143.9-48.2c4.3-3.8,8.6-7.8,13-12c5.5,5.3,11,10.4,16.8,15.3c52.8,45.5,105,63.8,137.3,45.1
	c33.3-19.3,44.2-77.7,30.1-148.7c-1.1-5.4-2.3-11-3.7-16.6c3.9-1.2,7.8-2.4,11.6-3.6c71.2-23.6,117.6-61.8,117.6-100.8
	C856.1,318.3,812.7,282.1,745.6,259L745.6,259z"/>
<path class="st1" d="M730.1,431.3c-3.4,1.1-6.9,2.2-10.4,3.3c-8.7-26.9-19.2-53.2-31.5-78.7c11.8-25.2,21.9-51.1,30.2-77.6
	c6.3,1.8,12.5,3.8,18.5,5.8c57.5,19.8,92.6,49.1,92.6,71.6C829.5,379.7,791.6,411,730.1,431.3z M704.6,481.9c6.2,31.4,7.1,59.8,3,82
	c-3.7,20-11.1,33.2-20.3,38.6c-19.6,11.3-61.5-3.4-106.6-42.3c-5.2-4.5-10.4-9.2-15.6-14.2c18.8-20.8,36.2-42.9,52.1-66.1
	c28.3-2.4,56.4-6.7,84.2-13C702.5,472,703.6,477,704.6,481.9L704.6,481.9z M446.5,600.6c-19.1,6.8-34.4,7-43.6,1.6
	c-19.6-11.3-27.8-55-16.6-113.5c1.3-6.9,2.8-13.8,4.5-20.6c27.6,5.9,55.6,10,83.8,12.1c16.3,23.1,34.1,45.1,53.3,65.9
	c-3.9,3.7-7.8,7.4-11.8,10.9C491.9,578.1,467.8,593,446.5,600.6L446.5,600.6z M356.8,431.2c-30.3-10.4-55.3-23.8-72.5-38.5
	c-15.4-13.2-23.2-26.3-23.2-36.9c0-22.6,33.7-51.5,90-71.1c7.1-2.5,14.2-4.7,21.4-6.7c8.4,26.8,18.5,53,30.3,78.5
	c-12,25.8-22.2,52.4-30.7,79.6C367,434.5,361.9,432.9,356.8,431.2z M386.9,226.6c-11.7-59.7-3.9-104.7,15.6-116
	c20.8-12,66.8,5.1,115.2,48.1c3.1,2.8,6.2,5.6,9.3,8.6c-19.1,20.6-36.8,42.5-52.9,65.5c-27.9,2.5-55.6,6.8-82.9,12.9
	C389.6,239.5,388.1,233.1,386.9,226.6L386.9,226.6z M655,292.8c-6.1-10.5-12.4-20.9-18.9-31.1c19.8,2.5,38.8,5.8,56.7,9.9
	c-5.7,18.2-12.4,36-19.9,53.5C667.1,314.3,661.2,303.5,655,292.8L655,292.8z M545.6,186.4c12.9,14.1,25.1,28.8,36.6,44.1
	c-24.5-1.2-49-1.2-73.5,0C520.8,214.6,533.2,199.8,545.6,186.4L545.6,186.4z M435.6,293c-6.1,10.6-11.9,21.3-17.5,32.1
	c-7.7-18.3-14.3-36.4-19.7-53.8c17.7-4,36.6-7.2,56.3-9.7C448.1,272,441.7,282.4,435.6,293L435.6,293z M455.2,451.7
	c-19.2-2.1-38.3-5.2-57.2-9.2c5.5-17.7,12.2-36.1,20.1-54.9c5.6,10.9,11.5,21.6,17.6,32.2C442,430.6,448.5,441.2,455.2,451.7
	L455.2,451.7z M546.4,527c-12.6-13.5-25.2-28.5-37.4-44.8c11.9,0.5,24,0.7,36.4,0.7c12.7,0,25.2-0.3,37.5-0.8
	C571.5,497.7,559.3,512.7,546.4,527L546.4,527z M673.1,386.6c7.9,17.8,14.9,36.1,20.9,54.7c-19.1,4.3-38.5,7.6-58,9.9
	c6.6-10.4,12.9-21,19.1-31.6C661.3,408.7,667.3,397.8,673.1,386.6z M632.1,406.3c-9.4,16.3-19.3,32.4-29.8,48.1
	c-18.4,1.3-37.5,2-56.9,2s-38.2-0.6-56.3-1.8c-10.7-15.7-20.9-31.7-30.4-48.2c-9.5-16.4-18.4-33.1-26.5-50.1
	c8.2-17,17-33.7,26.4-50.1l0,0c9.4-16.4,19.5-32.4,30.1-48c18.5-1.4,37.4-2.1,56.6-2.1s38.2,0.7,56.7,2.1
	c10.5,15.6,20.5,31.5,30,47.8s18.4,32.9,26.8,49.9C650.5,373,641.6,389.8,632.1,406.3L632.1,406.3z M686.9,109.8
	c20.8,12,28.9,60.4,15.8,123.9c-0.9,4.1-1.8,8.2-2.8,12.4c-27.4-6.2-55.1-10.6-83.1-13.1c-16-23-33.6-44.9-52.5-65.6
	c4.7-4.5,9.4-8.9,14.3-13.1C624.4,114.3,667.3,98.6,686.9,109.8L686.9,109.8z"/>
<path class="st0" d="M545.3,300.2c30.7,0,55.5,24.8,55.5,55.5s-24.8,55.5-55.5,55.5s-55.5-24.8-55.5-55.5
	C489.8,325.1,514.7,300.3,545.3,300.2C545.3,300.2,545.3,300.2,545.3,300.2"/>
<path class="st2" d="M232.8,121.2l-18.2,11.6l11.1-20.2c-3.1-2.5-7-3.9-11-3.9h-0.3c-1.3,0-2.5-0.1-3.8-0.3l-6.2,3.9l2.6-4.8
	c-4.4-1.5-8.2-4.4-10.8-8.2l-11.1,7l7-12.7c-6.5-7.8-15.2-12.5-24.8-12.5c-11.5,0-21.8,6.8-28.4,17.5c-4,6.5-11.1,10.4-18.8,10.1
	h-0.6c-12.7,0-23,14.4-23,32.2s10.3,32.2,23,32.2c2.8,0,5.5-0.7,8-2c8.3-4.3,19.2-4.4,27.9-0.5c7.5,3.4,16.1,3.4,23.7,0.1
	c8.6-3.8,19.4-3.7,27.6,0.5c2.4,1.3,5.2,2,7.9,2c12.7,0,23-14.4,23-32.2C237.7,134.1,236.1,127.3,232.8,121.2z"/>
<path class="st3" d="M198.4,168.3c-6.6-1.3-13.5-0.5-19.7,2.1c-7.5,3.4-16.1,3.3-23.7-0.1c-8.7-3.9-19.6-3.8-27.9,0.5
	c-2.5,1.3-5.2,2-8,2c-11.3,0-20.7-11.4-22.6-26.4c2.3-1.6,4.2-3.7,5.6-6.1c6.7-10.7,16.9-17.5,28.4-17.5c11.5,0,21.6,6.8,28.3,17.3
	c4,6.5,11.1,10.4,18.8,10.3h0.3C186.8,150.6,194.6,157.8,198.4,168.3z"/>
<path class="st2" d="M1054,115.9l-18.2,11.6l11.1-20.2c-3.1-2.5-7-3.9-11-3.9h-0.3c-1.3,0-2.5-0.1-3.8-0.3l-6.2,3.9l2.7-4.8
	c-4.4-1.5-8.2-4.4-10.8-8.2l-11.1,7l7-12.7c-6.5-7.8-15.2-12.5-24.8-12.5c-11.5,0-21.8,6.8-28.4,17.5c-4,6.5-11.1,10.4-18.8,10.1
	h-0.6c-12.7,0-23,14.4-23,32.2s10.3,32.2,23,32.2c2.8,0,5.5-0.7,8-2c8.3-4.3,19.2-4.4,27.9-0.5c7.5,3.4,16.1,3.4,23.7,0.1
	c8.6-3.8,19.4-3.7,27.6,0.5c2.4,1.3,5.2,2,7.9,2c12.7,0,23-14.4,23-32.2C1058.9,128.8,1057.3,122,1054,115.9z"/>
<path class="st3" d="M1019.6,163c-6.6-1.3-13.5-0.5-19.7,2.1c-7.5,3.4-16.1,3.3-23.7-0.1c-8.7-3.9-19.6-3.8-27.9,0.5
	c-2.5,1.3-5.2,2-8,2c-11.3,0-20.7-11.4-22.6-26.4c2.3-1.6,4.2-3.7,5.6-6.1c6.7-10.7,16.9-17.5,28.4-17.5s21.6,6.8,28.3,17.3
	c4,6.5,11.1,10.4,18.8,10.3h0.3C1008,145.3,1015.8,152.5,1019.6,163z"/>
<path class="st2" d="M876.5,244.4l-9.1,5.8l5.5-10c-1.6-1.3-3.5-2-5.5-2h-0.1c-0.6,0-1.3,0-1.9-0.1l-3.1,2l1.3-2.5
	c-2.2-0.8-4.1-2.2-5.4-4.1l-5.5,3.5l3.5-6.3c-3-3.8-7.5-6.1-12.4-6.3c-5.8,0-10.9,3.4-14.2,8.7c-2,3.2-5.6,5.1-9.4,5H820
	c-6.3,0-11.5,7.2-11.5,16c0,8.8,5.1,16.1,11.5,16.1c1.4,0,2.8-0.3,4-1c4.4-2.1,9.4-2.2,13.9-0.3c3.8,1.7,8.1,1.7,11.8,0
	c4.4-1.9,9.4-1.8,13.8,0.3c1.2,0.7,2.6,1,4,1c6.3,0,11.5-7.2,11.5-16.1C879,250.7,878.1,247.3,876.5,244.4z"/>
<path class="st3" d="M859.4,267.8c-3.3-0.6-6.7-0.3-9.8,1.1c-3.8,1.7-8.1,1.7-11.8,0c-4.4-2-9.5-1.9-13.9,0.3c-1.2,0.7-2.6,1-4,1
	c-5.6,0-10.3-5.7-11.3-13.1c1.1-0.8,2.1-1.8,2.8-3c3.3-5.3,8.4-8.7,14.2-8.7s10.8,3.4,14.1,8.6c2,3.2,5.6,5.2,9.4,5.1h0.2
	C853.6,259,857.4,262.6,859.4,267.8z"/>
<path class="st2" d="M134.5,610.6l-9.1,5.8l5.5-10c-1.6-1.3-3.5-2-5.5-2h-0.1c-0.6,0-1.3,0-1.9-0.1l-3.1,2l1.3-2.5
	c-2.2-0.8-4.1-2.2-5.4-4.1l-5.5,3.5l3.5-6.3c-3-3.8-7.5-6.1-12.4-6.3c-5.8,0-10.9,3.4-14.2,8.7c-2,3.2-5.6,5.1-9.4,5H78
	c-6.3,0-11.5,7.2-11.5,16s5.1,16,11.5,16c1.4,0,2.8-0.3,4-1c4.4-2.1,9.4-2.2,13.9-0.3c3.8,1.7,8.1,1.7,11.8,0
	c4.4-1.9,9.4-1.8,13.8,0.3c1.2,0.7,2.6,1,4,1c6.3,0,11.5-7.2,11.5-16C137,616.9,136.1,613.6,134.5,610.6z"/>
<path class="st3" d="M117.4,634.1c-3.3-0.6-6.7-0.3-9.8,1.1c-3.8,1.7-8.1,1.7-11.8,0c-4.4-2-9.5-1.9-13.9,0.3c-1.2,0.7-2.6,1-4,1
	c-5.6,0-10.3-5.7-11.3-13.1c1.1-0.8,2.1-1.8,2.8-3c3.3-5.3,8.4-8.7,14.2-8.7s10.8,3.4,14.1,8.6c2,3.2,5.6,5.2,9.4,5.1h0.2
	C111.6,625.3,115.4,628.9,117.4,634.1z"/>
<path class="st2" d="M843.3,569.1l14.7,9.3l-8.9-16.1c2.5-2,5.6-3.1,8.9-3.2h0.2c1,0,2-0.1,3-0.2l5,3.1l-2.2-3.9
	c3.5-1.2,6.5-3.5,8.7-6.6l8.9,5.6L876,547c5.2-6.2,12.2-10,19.9-10c9.2,0,17.4,5.5,22.8,14c3.2,5.2,8.9,8.3,15,8.1h0.5
	c10.2,0,18.4,11.5,18.4,25.8s-8.2,25.8-18.4,25.8c-2.2,0-4.4-0.6-6.4-1.6c-7-3.4-15.2-3.6-22.3-0.4c-6,2.7-13,2.7-19,0
	c-7.1-3.1-15.2-2.9-22.1,0.4c-2,1-4.1,1.6-6.3,1.6c-10.2,0-18.4-11.5-18.4-25.8C839.4,579.4,840.7,573.9,843.3,569.1z"/>
<path class="st3" d="M870.9,606.8c5.3-1,10.8-0.4,15.8,1.7c6,2.7,13,2.7,19,0c7.1-3.1,15.3-3,22.3,0.4c2,1,4.2,1.6,6.4,1.6
	c9,0,16.6-9.1,18.1-21.1c-1.8-1.3-3.3-3-4.5-4.9c-5.3-8.5-13.5-14-22.8-14c-9.2,0-17.3,5.4-22.6,13.9c-3.2,5.2-8.9,8.3-15,8.2h-0.2
	C880.2,592.6,873.9,598.4,870.9,606.8z"/>
<path class="st2" d="M202.3,472.1l14.7,9.3l-8.9-16.1c2.5-2,5.6-3.1,8.9-3.1h0.2c1,0,2-0.1,3-0.2l5,3.1l-2.2-3.9
	c3.5-1.2,6.5-3.5,8.7-6.6l8.9,5.6l-5.5-10.2c5.2-6.2,12.2-10,19.9-10c9.2,0,17.4,5.5,22.7,14c3.2,5.2,8.9,8.3,15,8.1h0.5
	c10.2,0,18.4,11.5,18.4,25.8s-8.2,25.8-18.4,25.8c-2.2,0-4.4-0.6-6.4-1.6c-7-3.4-15.2-3.6-22.3-0.4c-6,2.7-13,2.7-19,0
	c-7.1-3.1-15.2-2.9-22.1,0.4c-2,1-4.1,1.6-6.4,1.6c-10.2,0-18.4-11.5-18.4-25.8C198.4,482.4,199.7,476.9,202.3,472.1z"/>
<path class="st3" d="M229.8,509.8c5.3-1,10.8-0.4,15.8,1.7c6,2.7,13,2.7,19,0c7.1-3.1,15.3-3,22.3,0.4c2,1,4.2,1.6,6.4,1.6
	c9,0,16.6-9.1,18.1-21.1c-1.8-1.3-3.3-3-4.5-4.9c-5.3-8.5-13.5-14-22.8-14s-17.3,5.4-22.6,13.9c-3.2,5.2-8.9,8.3-15,8.2h-0.2
	C239.1,495.6,232.9,501.4,229.8,509.8z"/>
</svg>
