<?xml version="1.0" encoding="utf-8"?>
<!-- Generator: Adobe Illustrator 26.0.2, SVG Export Plug-In . SVG Version: 6.00 Build 0)  -->
<svg version="1.1" id="ab47acfe-844d-4101-aa7b-df38aa50dbe4"
	 xmlns="http://www.w3.org/2000/svg" xmlns:xlink="http://www.w3.org/1999/xlink" x="0px" y="0px" viewBox="0 0 971.1 628.4"
	 style="enable-background:new 0 0 971.1 628.4;" xml:space="preserve">
<style type="text/css">
	.st0{opacity:0.75;}
	.st1{fill:#E0E0E0;}
	.st2{fill:#09AAE0;}
	.st3{fill:#031F33;}
	.st4{fill:#082947;}
	.st5{fill:#FFFFFF;}
	.st6{opacity:0.75;fill:#FFFFFF;enable-background:new    ;}
	.st7{opacity:0.5;fill:#FFFFFF;enable-background:new    ;}
	.st8{fill:#00AADF;}
	.st9{fill:#63CDE5;}
	.st10{fill:#B7B7B7;}
	.st11{fill:#6BDAED;}
	.st12{fill:#BABABA;}
	.st13{fill:#CACACA;}
	.st14{fill:#EFD200;}
	.st15{fill:#E6E6E6;}
	.st16{fill:#F4D37E;}
	.st17{fill:#DEB449;}
	.st18{fill:#232323;}
	.st19{fill:#023042;}
	.st20{fill:#1860AA;}
	.st21{fill:#B0CEED;}
	.st22{fill:#2B3990;}
	.st23{fill:#1A0845;}
	.st24{fill:#E6E7E8;}
	.st25{fill:#D1D3D4;}
	.st26{fill-rule:evenodd;clip-rule:evenodd;fill:#4C4C4C;}
	.st27{fill-rule:evenodd;clip-rule:evenodd;fill:#232323;}
</style>
<g>
	<g class="st0">
		<path class="st1" d="M900.2,611.3c0,3.2-2.6,5.8-5.8,5.8H97.7c-3.2,0-5.8-2.6-5.8-5.8l0,0c0-3.2,2.6-5.8,5.8-5.8h796.7
			C897.7,605.5,900.2,608.1,900.2,611.3L900.2,611.3z"/>
	</g>
	<g>
		<g>
			<path class="st2" d="M695.1,368.2c0,1.7-1.4,3.2-3.2,3.2H585.2c-1.7,0-3.2-1.4-3.2-3.2V289c0-1.7,1.4-3.2,3.2-3.2h106.7
				c1.7,0,3.2,1.4,3.2,3.2L695.1,368.2L695.1,368.2z"/>
			<g>
				<polygon class="st3" points="610.8,328.7 622,315.2 616.1,310.1 600.4,328.7 616.2,347.2 622.1,342.1 				"/>
				<polygon class="st3" points="666.3,328.6 654.9,315.2 660.8,310.1 676.6,328.6 660.9,347.2 655,342.1 				"/>
				
					<rect x="614.1" y="324.6" transform="matrix(0.4035 -0.915 0.915 0.4035 80.2903 780.1742)" class="st3" width="48.8" height="7.9"/>
			</g>
		</g>
		<g>
			<path class="st4" d="M634.4,204.4c0,1.7-1.4,3.2-3.2,3.2H524.5c-1.7,0-3.2-1.4-3.2-3.2v-79.2c0-1.7,1.4-3.2,3.2-3.2h106.7
				c1.7,0,3.2,1.4,3.2,3.2V204.4z"/>
			<rect x="525.7" y="133.8" class="st5" width="104.2" height="69.3"/>
			<path class="st5" d="M630,128c0-1.2-1-2.1-2.1-2.1c-1.2,0-2.1,1-2.1,2.1c0,1.2,1,2.1,2.1,2.1S630,129.1,630,128z"/>
			<path class="st6" d="M614.3,128c0-1.2-1-2.1-2.1-2.1c-1.2,0-2.1,1-2.1,2.1c0,1.2,1,2.1,2.1,2.1S614.3,129.1,614.3,128z"/>
			<path class="st7" d="M598.5,128c0-1.2-1-2.1-2.1-2.1s-2.1,1-2.1,2.1c0,1.2,1,2.1,2.1,2.1S598.5,129.1,598.5,128z"/>
			<g>
				<g>
					<path class="st8" d="M542.4,140.4c0,0.7-0.6,1.3-1.3,1.3h-10.2c-0.7,0-1.3-0.6-1.3-1.3v-1.7c0-0.7,0.6-1.3,1.3-1.3h10.2
						c0.7,0,1.3,0.6,1.3,1.3V140.4z"/>
				</g>
				<g>
					<path class="st9" d="M553.3,140.4c0,0.7-0.6,1.3-1.3,1.3h-5.1c-0.7,0-1.3-0.6-1.3-1.3v-1.7c0-0.7,0.6-1.3,1.3-1.3h5.1
						c0.7,0,1.3,0.6,1.3,1.3V140.4z"/>
				</g>
				<g>
					<path class="st8" d="M562.5,148.7c0,0.7-0.6,1.3-1.3,1.3h-18.8c-0.7,0-1.3-0.6-1.3-1.3v-1.8c0-0.7,0.6-1.3,1.3-1.3h18.8
						c0.7,0,1.3,0.6,1.3,1.3V148.7z"/>
				</g>
				<g>
					<path class="st9" d="M575.7,148.7c0,0.7-0.6,1.3-1.3,1.3H567c-0.7,0-1.3-0.6-1.3-1.3v-1.8c0-0.7,0.6-1.3,1.3-1.3h7.4
						c0.7,0,1.3,0.6,1.3,1.3V148.7z"/>
				</g>
				<g>
					<path class="st8" d="M572.4,156.9c0,0.7-0.6,1.3-1.3,1.3h-19.6c-0.7,0-1.3-0.6-1.3-1.3v-1.8c0-0.7,0.6-1.3,1.3-1.3h19.6
						c0.7,0,1.3,0.6,1.3,1.3V156.9z"/>
				</g>
				<g>
					<path class="st8" d="M584.4,156.9c0,0.7-0.6,1.3-1.3,1.3h-6.3c-0.7,0-1.3-0.6-1.3-1.3v-1.8c0-0.7,0.6-1.3,1.3-1.3h6.3
						c0.7,0,1.3,0.6,1.3,1.3V156.9z"/>
				</g>
				<g>
					<path class="st8" d="M547.7,165.3c0,0.7-0.6,1.3-1.3,1.3h-4.7c-0.7,0-1.3-0.6-1.3-1.3v-1.8c0-0.7,0.6-1.3,1.3-1.3h4.7
						c0.7,0,1.3,0.6,1.3,1.3V165.3z"/>
				</g>
				<g>
					<path class="st8" d="M578.1,165.3c0,0.7-0.6,1.3-1.3,1.3h-7.1c-0.7,0-1.3-0.6-1.3-1.3v-1.8c0-0.7,0.6-1.3,1.3-1.3h7.1
						c0.7,0,1.3,0.6,1.3,1.3V165.3z"/>
				</g>
				<g>
					<path class="st9" d="M565.2,165.3c0,0.7-0.6,1.3-1.3,1.3h-11.7c-0.7,0-1.3-0.6-1.3-1.3v-1.8c0-0.7,0.6-1.3,1.3-1.3H564
						c0.7,0,1.3,0.6,1.3,1.3L565.2,165.3L565.2,165.3z"/>
				</g>
				<g>
					<path class="st8" d="M543.4,173.6c0,0.7-0.6,1.3-1.3,1.3h-11.2c-0.7,0-1.3-0.6-1.3-1.3v-1.8c0-0.7,0.6-1.3,1.3-1.3h11.2
						c0.7,0,1.3,0.6,1.3,1.3V173.6z"/>
				</g>
				<g>
					<path class="st8" d="M554.4,173.6c0,0.7-0.6,1.3-1.3,1.3h-5.3c-0.7,0-1.3-0.6-1.3-1.3v-1.8c0-0.7,0.6-1.3,1.3-1.3h5.3
						c0.7,0,1.3,0.6,1.3,1.3V173.6z"/>
				</g>
				<g>
					<path class="st8" d="M558.3,181.9c0,0.7-0.6,1.3-1.3,1.3h-10.2c-0.7,0-1.3-0.6-1.3-1.3V180c0-0.7,0.6-1.3,1.3-1.3H557
						c0.7,0,1.3,0.6,1.3,1.3V181.9z"/>
				</g>
				<g>
					<path class="st8" d="M567.8,181.9c0,0.7-0.6,1.3-1.3,1.3h-3.8c-0.7,0-1.3-0.6-1.3-1.3V180c0-0.7,0.6-1.3,1.3-1.3h3.8
						c0.7,0,1.3,0.6,1.3,1.3V181.9z"/>
				</g>
				<g>
					<path class="st8" d="M568,190.1c0,0.7-0.6,1.3-1.3,1.3h-11.6c-0.7,0-1.3-0.6-1.3-1.3v-1.8c0-0.7,0.6-1.3,1.3-1.3h11.6
						c0.7,0,1.3,0.6,1.3,1.3V190.1z"/>
				</g>
				<g>
					<path class="st9" d="M580.9,190.1c0,0.7-0.6,1.3-1.3,1.3h-7.2c-0.7,0-1.3-0.6-1.3-1.3v-1.8c0-0.7,0.6-1.3,1.3-1.3h7.2
						c0.7,0,1.3,0.6,1.3,1.3V190.1z"/>
				</g>
				<g>
					<path class="st8" d="M591,190.1c0,0.7-0.6,1.3-1.3,1.3h-4.4c-0.7,0-1.3-0.6-1.3-1.3v-1.8c0-0.7,0.6-1.3,1.3-1.3h4.4
						c0.7,0,1.3,0.6,1.3,1.3V190.1z"/>
				</g>
				<g>
					<path class="st8" d="M549.6,198.4c0,0.7-0.6,1.3-1.3,1.3h-9.1c-0.7,0-1.3-0.6-1.3-1.3v-1.8c0-0.7,0.6-1.3,1.3-1.3h9.1
						c0.7,0,1.3,0.6,1.3,1.3V198.4z"/>
				</g>
				<g>
					<path class="st8" d="M559.1,198.4c0,0.7-0.6,1.3-1.3,1.3H554c-0.7,0-1.3-0.6-1.3-1.3v-1.8c0-0.7,0.6-1.3,1.3-1.3h3.8
						c0.7,0,1.3,0.6,1.3,1.3V198.4z"/>
				</g>
				<g>
					<path class="st8" d="M577.1,198.4c0,0.7-0.6,1.3-1.3,1.3h-12.2c-0.7,0-1.3-0.6-1.3-1.3v-1.8c0-0.7,0.6-1.3,1.3-1.3h12.2
						c0.7,0,1.3,0.6,1.3,1.3V198.4z"/>
				</g>
			</g>
		</g>
		<g>
			<g>
				<path class="st2" d="M759.6,230c1.4-1.4,1-2.6-1.1-2.6h-21.2c-2,0-3.7,1.6-3.7,3.7v21.2c0,2,1.2,2.5,2.6,1.1L759.6,230z"/>
				<g>
					<path class="st2" d="M874.4,234.2c0,2.2-1.8,4-4,4H719.9c-2.2,0-4-1.8-4-4v-70.7c0-2.2,1.8-4,4-4h150.4c2.2,0,4,1.8,4,4
						L874.4,234.2L874.4,234.2z"/>
				</g>
			</g>
			<g>
				<rect x="724.5" y="213.4" class="st10" width="84.1" height="4.3"/>
				<rect x="724.5" y="224.4" class="st10" width="84.1" height="4.3"/>
				<rect x="740.7" y="169.3" class="st10" width="68" height="4.3"/>
				<rect x="724.5" y="202.3" class="st10" width="84.1" height="4.3"/>
				<rect x="724.5" y="191.3" class="st10" width="84.1" height="4.3"/>
				<rect x="724.5" y="180.4" class="st10" width="84.1" height="4.3"/>
			</g>
			<g>
				<path class="st5" d="M852.7,219.6c0-4.9-4-9-9-9s-9,4-9,9s4,9,9,9C848.7,228.7,852.7,224.7,852.7,219.6z"/>
				<g>
					<path class="st3" d="M866,217l-2.2-5.8c-0.6-1.4-1.9-2.7-3.1-2.7s-2-1.3-2-2.9v-3l0,0v-13l0,0c0-8.3-6.6-14.9-14.9-14.9
						s-14.9,6.7-14.9,14.9v16c0,1.5-0.9,2.9-2,2.9c-1.2,0-2.5,1.3-3.1,2.7l-2.2,5.8c-0.6,1.4,0.3,2.7,1.8,2.7h40.8
						C865.7,219.6,866.6,218.5,866,217z"/>
					<path class="st3" d="M843.8,169.3c-1.4,0-2.6,1.2-2.6,2.6v3.9h5.2v-3.9C846.4,170.5,845.2,169.3,843.8,169.3z"/>
					<path class="st5" d="M845,171.9c0-0.8-0.6-1.3-1.3-1.3s-1.3,0.6-1.3,1.3c0,0.8,0.6,1.3,1.3,1.3
						C844.4,173.3,845,172.6,845,171.9z"/>
				</g>
			</g>
		</g>
		<g>
			<g>
				<path class="st11" d="M573,288.9c1,1,1.7,0.6,1.7-0.7v-22c0-1.3-1.1-2.4-2.4-2.4h-22c-1.3,0-1.6,0.8-0.7,1.7L573,288.9z"/>
			</g>
			<path class="st11" d="M510.9,271.6c0,2.7,2.2,4.9,4.9,4.9h67.4c2.7,0,4.9-2.2,4.9-4.9v-26.2c0-2.7-2.2-4.9-4.9-4.9h-67.4
				c-2.7,0-4.9,2.2-4.9,4.9V271.6L510.9,271.6z"/>
			<g>
				<g>
					<path class="st12" d="M541.2,250.2c0,0.6,0.5,1.1,1.1,1.1h39.3c0.6,0,1.1-0.5,1.1-1.1v-2.7c0-0.6-0.5-1.1-1.1-1.1h-39.2
						c-0.6,0-1.1,0.5-1.1,1.1L541.2,250.2L541.2,250.2z"/>
				</g>
				<g>
					<path class="st12" d="M516.3,260c0,0.6,0.5,1.1,1.1,1.1h64.2c0.6,0,1.1-0.5,1.1-1.1v-2.7c0-0.6-0.5-1.1-1.1-1.1h-64.1
						c-0.6,0-1.1,0.5-1.1,1.1L516.3,260L516.3,260z"/>
				</g>
				<g>
					<path class="st12" d="M516.3,269.7c0,0.6,0.5,1.1,1.1,1.1h39c0.6,0,1.1-0.5,1.1-1.1V267c0-0.6-0.5-1.1-1.1-1.1h-39
						c-0.6,0-1.1,0.5-1.1,1.1V269.7z"/>
				</g>
			</g>
		</g>
		<g>
			<g>
				<path class="st11" d="M781.6,376.3c-1,1-1.7,0.6-1.7-0.7v-22c0-1.3,1.1-2.4,2.4-2.4h22c1.3,0,1.6,0.8,0.7,1.7L781.6,376.3z"/>
			</g>
			<path class="st11" d="M843.8,359.2c0,2.7-2.2,4.9-4.9,4.9h-67.4c-2.7,0-4.9-2.2-4.9-4.9V333c0-2.7,2.2-4.9,4.9-4.9h67.4
				c2.7,0,4.9,2.2,4.9,4.9V359.2z"/>
			<g>
				<g>
					<path class="st12" d="M813.4,337.6c0,0.6-0.5,1.1-1.1,1.1h-39.2c-0.6,0-1.1-0.5-1.1-1.1v-2.7c0-0.6,0.5-1.1,1.1-1.1h39.2
						c0.6,0,1.1,0.5,1.1,1.1V337.6z"/>
				</g>
				<g>
					<path class="st12" d="M838.4,347.4c0,0.6-0.5,1.1-1.1,1.1h-64.1c-0.6,0-1.1-0.5-1.1-1.1v-2.8c0-0.6,0.5-1.1,1.1-1.1h64.1
						c0.6,0,1.1,0.5,1.1,1.1V347.4z"/>
				</g>
				<g>
					<path class="st12" d="M838.4,357.2c0,0.6-0.5,1.1-1.1,1.1h-39c-0.6,0-1.1-0.5-1.1-1.1v-2.7c0-0.6,0.5-1.1,1.1-1.1h39
						c0.6,0,1.1,0.5,1.1,1.1V357.2z"/>
				</g>
			</g>
		</g>
	</g>
</g>
<path class="st13" d="M790,481.9L790,481.9c-2.6-17.2-3.3-34.7-2-52.1l2-28.8l0,0C779,423.1,781.5,452.1,790,481.9L790,481.9z"/>
<path class="st13" d="M798.7,486.7L798.7,486.7c-1.3-10.3-1.5-20.7-1-31l1-17.1l0,0C793.3,451.7,794.6,469,798.7,486.7z"/>
<path class="st14" d="M837.2,507.9v9.6c0,1.6-1.3,2.9-2.9,2.9h-4.8c-0.6,0-1,0.4-1,1l0,0v78.9c0,1.6-1.3,2.9-2.9,2.9h-58.7
	c-1.6,0-2.9-1.3-2.9-2.9v-78.9c0-0.6-0.4-1-1-1h-5.8c-1.6,0-2.9-1.3-2.9-2.9v-9.6c0-1.6,1.3-2.9,2.9-2.9l0,0h77
	C835.9,505,837.2,506.2,837.2,507.9z"/>
<rect x="764.1" y="522.4" class="st15" width="64.5" height="2.9"/>
<path class="st15" d="M828.5,564.8c-21.6,9-43.4,9-65.4,0v-20.3c21.3-7.1,44.2-7.1,65.4,0V564.8z"/>
<g>
	<polygon class="st16" points="447.3,295.9 392.3,342.3 332.5,299.4 346.7,260.3 349.7,245.4 355.5,215.8 415.6,214.2 418.2,224.7 
		425.3,253.1 	"/>
	<g>
		<path class="st17" d="M418.2,224.7c-6.1,10.8-22.8,25.3-68.5,20.7l5.8-29.5l60.2-1.6L418.2,224.7z"/>
		<g>
			<path class="st16" d="M442,138.4c0,51.9-25,93.9-55.8,93.9c-30.9,0-55.8-42.1-55.8-93.9s25-67.3,55.8-67.3
				C417,71.2,442,86.5,442,138.4z"/>
			<path class="st17" d="M413.7,76.4c0,0,0.2,29.9-26.9,32.6c-27,2.6-51.7-13.7-57.8,21.8V99l29.9-17.6L413.7,76.4z"/>
			<path class="st18" d="M447.9,94c5.1,17.7-8.4,96.8-16,112.8s-24.4,25.3-47.3,25.5c-29.3,0.3-39.1-14.1-45-22.6
				s-6.4-24.6-14.1-85.4c-7.6-60.7,40.5-68.9,58.2-68.9s26.1-0.3,29.5,11.5C438.5,65.6,442.8,76.3,447.9,94z M386.2,219
				c44.8,0,48.2-42,48.2-42c5-10.6,2.2-60.2,2.2-60.2c-6.8-2-22.5-21.2-22.5-35.5c0,0-6.1,13.8-22.1,21.3
				c-16.2,7.5-44.8-7.6-55.6,4.6c-10.9,12.2-4.2,51.5-0.6,68C335.7,175.3,341.3,219,386.2,219z"/>
			<path class="st18" d="M366.9,135c0,4.4-2.4,8-5.5,8s-5.5-3.6-5.5-8s2.4-8,5.5-8S366.9,130.6,366.9,135z"/>
			<path class="st18" d="M413.7,135c0,4.4-2.4,8-5.5,8c-3,0-5.5-3.6-5.5-8s2.4-8,5.5-8C411.2,127,413.7,130.6,413.7,135z"/>
			<path class="st5" d="M369.3,190.2h32.1c0,0-3.5,14-14.8,14C375.4,204.1,370.7,196,369.3,190.2z"/>
			<path class="st17" d="M385.4,143c0,0-20.5,32.8,0,32.8V143z"/>
		</g>
		<path class="st18" d="M401.5,59.9c0,0-4.3,14.2-29.5,14.3c-25.2,0-33,2.2-33,2.2S357.5,56.5,401.5,59.9z"/>
		<g>
			<g>
				<path class="st19" d="M386.2,69.7c33.9,0,61.4,26.8,61.4,59.9c0,5.6-0.8,11.1-2.3,16.3c3.6-7.8,5.5-16.4,5.5-25.5
					c0-34.8-28.9-63-64.6-63s-64.6,28.2-64.6,63c0,9.1,2,17.7,5.5,25.5c-1.5-5.2-2.3-10.6-2.3-16.3
					C324.8,96.5,352.2,69.7,386.2,69.7z"/>
			</g>
			<path class="st20" d="M321.4,158.7c0,1.8-1.4,3.3-3.2,3.4l0,0c-1.8,0-3.3-1.4-3.4-3.2l-0.7-31.3c0-1.8,1.4-3.3,3.2-3.4l0,0
				c1.8,0,3.3,1.4,3.4,3.2L321.4,158.7z"/>
			<g>
				<g>
					<path class="st19" d="M326.8,164.7c3-0.1,5.3-2.5,5.2-5.5l-0.7-33.8c-0.1-3-2.5-5.3-5.5-5.2c-0.1,0-0.2,0-0.3,0l0.9,44.4
						C326.7,164.7,326.7,164.7,326.8,164.7z"/>
				</g>
				<path class="st21" d="M325.5,120.1c-3,0.1-5.3,2.5-5.2,5.5l0.7,33.8c0.1,3,2.5,5.3,5.5,5.2c0.1,0,0.1,0,0.2,0
					C326.6,164.6,325.8,120.1,325.5,120.1z"/>
			</g>
			<path class="st20" d="M451.3,127.3c0-1.8,1.4-3.3,3.3-3.3l0,0c1.8,0,3.3,1.4,3.3,3.3l0.3,31.3c0,1.8-1.4,3.3-3.3,3.3l0,0
				c-1.8,0-3.3-1.4-3.3-3.3L451.3,127.3z"/>
			<g>
				<g>
					<path class="st19" d="M446.7,164.8l-0.5-44.5c-0.1,0-0.2,0-0.3,0c-3,0-5.3,2.5-5.3,5.4l0.4,33.8c0,3,2.5,5.3,5.4,5.3
						C446.5,164.8,446.6,164.8,446.7,164.8z"/>
				</g>
				<path class="st21" d="M446.4,120.2c3,0,5.4,2.3,5.4,5.3l0.4,33.8c0,3-2.3,5.4-5.3,5.4c-0.1,0-0.1,0-0.2,0
					C446.7,164.7,446,120.2,446.4,120.2z"/>
			</g>
		</g>
	</g>
	<g>
		<path class="st22" d="M480.7,383.2c-1.7,0.6-3.3,1.1-4.6,1.5c0.8,7.3,1.7,24.5,2.6,40.6l0.1,1.8c0.3,4.4,0.5,8.8,0.8,12.8
			c0.5,7.2,1,13.4,1.4,16.8c1.4,8.5,2.7,17.2,3.7,25.4c2.4,20.8,3.3,38,3.3,38c-4-0.1-198,0-198,0l1-33.5l0.7-22.1l0.7-21l1.7-57.9
			c-1.7-0.6-4.7-1.2-8.5-1.8c-14.1-2.4-39.1-5.1-48.7-6.1c-2.4-0.3-3.8-0.4-3.8-0.4s21.5-89.6,34.6-103.8c24-15.1,48.9-21,81.8-28.4
			c0,0-2,12.4,4,23.1c14.7,25.7,63.4,21.2,70-7.8c1.5-6.9-0.2-15.3-0.2-15.3s67.4,14,80.5,29.5c10.2,17.2,29,93.6,29,93.6
			s-1.8,0.5-4.9,1.3C517.8,372.5,494.1,378.9,480.7,383.2z"/>
		<polygon class="st23" points="462.4,330.2 476.1,384.9 478.8,427.2 462.4,382.8 		"/>
		<polygon class="st23" points="303.2,415.7 295.9,446.9 291.8,464.6 292.3,443.7 294.1,385.8 303.2,326 		"/>
	</g>
	<g>
		<g>
			<path class="st18" d="M261.4,557.2c0,0-68.8,3.7-84.6,10.8c-15.8,7,2.4,42.8,13.4,44.3c8.1,1.1,76.3-5.8,85.9-15.8L261.4,557.2z"
				/>
			<path class="st16" d="M261.4,557.2c0,0-29.8,6.4-35.4,13.6c-5.6,7.2-6.5,26.9-2.4,27.8c4.1,0.9,9.3,7.3,52.6-2.1L261.4,557.2z"/>
		</g>
		<path class="st18" d="M260.6,556.9l15.3,40.3l283.4-51.9c27.6-6.1,75.6-31.5,69.4-53.2c-7.5-26.4-29.1-43.2-56.3-35.6L260.6,556.9
			z"/>
	</g>
	<path class="st16" d="M295.9,446.9l-3.6-3.2l-18.2-16.5l11.5-43.3c-14.1-2.4-39.1-5.1-48.7-6.1L226,433.4
		c-1.3,6.9,1.7,14.1,7.7,17.8l57.2,35.7l19.3,12.1l15.1-25.1L295.9,446.9z"/>
	<path class="st16" d="M541.3,432.4L528,369.8c-10.2,2.7-33.8,9-47.3,13.4l12.5,44L479.6,440l-37,34.6l15.6,24.8l26.5-17.2l49.2-32
		C539.9,446.5,542.8,439.3,541.3,432.4z"/>
	<g>
		<path class="st18" d="M518.5,556.4l-14.7,40.5l-293.3-51.6c-27.7-5.7-59.8-27.7-60.3-44.1c-0.7-22.6,32.1-51.5,59.4-44.2
			L518.5,556.4z"/>
		<g>
			<path class="st18" d="M518.5,556.4c0,0,72.5,4.8,88.5,11.2c16.1,6.4-5.7,39.7-16.7,41.6c-8,1.4-76.5-2.7-86.5-12.3L518.5,556.4z"
				/>
			<path class="st16" d="M518.5,556.4c0,0,28.6,5.9,34.5,12.8c5.9,7,7.6,26.7,3.5,27.7s-9,7.7-52.6,0L518.5,556.4z"/>
		</g>
	</g>
	<g>
		<path class="st24" d="M494.1,382.8L479,502.1H287.1l-2.2-17.8L272,382.9c0-7.4,6-13.5,13.5-13.5h195.3
			C488.1,369.4,494.1,375.4,494.1,382.8z"/>
		<path class="st25" d="M480.1,513.3H285.9c-1.4,0-2.6-1.2-2.6-2.6v-6.1c0-1.4,1.2-2.6,2.6-2.6h194.3c1.4,0,2.6,1.2,2.6,2.6v6.1
			C482.7,512.2,481.6,513.3,480.1,513.3z"/>
		<path class="st25" d="M383,420.5c-1.2,0-2.3,0.1-3.5,0.4c0.1,0.5,0.1,1,0.1,1.4c0,6.8-5.5,12.3-12.2,12.3
			c-0.1,0.5-0.1,1.1-0.1,1.5c0,8.7,7,15.7,15.7,15.7s15.7-7,15.7-15.7C398.7,427.5,391.7,420.5,383,420.5z"/>
	</g>
</g>
<g>
	<g>
		<path class="st5" d="M142.9,190c-10,0-14,4.1-14,13.1c0,0.9-1.5,0.9-1.5,0c0-9-3.2-13.1-14-13.1c-0.8,0-0.8-1.5,0-1.5
			c11.2,0,14-5.2,14-13.1c0-0.9,1.5-0.9,1.5,0c0,9.4,3.8,13.1,14,13.1C143.6,188.4,143.6,190,142.9,190z"/>
	</g>
	<g>
		<path class="st5" d="M218,121.6c-15,0-20.9,6.2-20.9,19.5c0,1.3-2.3,1.3-2.3,0c0-13.3-4.7-19.5-20.9-19.5c-1.3,0-1.3-2.3,0-2.3
			c16.7,0,20.9-7.7,20.9-19.4c0-1.3,2.3-1.3,2.3,0c0,14.1,5.7,19.4,20.9,19.4C219.3,119.3,219.3,121.6,218,121.6z"/>
	</g>
	<g>
		<path class="st5" d="M204.1,265.9c-11.5,0-16,4.7-16,14.9c0,1-1.8,1-1.8,0c0-10.2-3.7-14.9-16-14.9c-1,0-1-1.8,0-1.8
			c12.7,0,16-5.9,16-14.9c0-1,1.8-1,1.8,0c0,10.7,4.3,14.9,16,14.9C205,264.2,205,265.9,204.1,265.9z"/>
	</g>
</g>
<path class="st26" d="M443.2,121.1c0,0-2.5,0.3-10-1.1s-19.2-0.4-23.8-0.4c-4.7,0.1-11.9,1.7-17.4,6.8c-4.1,0-6.7,0-6.7,0
	s-2.6,0-6.7,0c-5.5-5.1-12.7-6.7-17.4-6.8c-4.7-0.1-16.3-1-23.8,0.4s-10,1.1-10,1.1c-0.7,0-1.3,0.6-1.3,1.3v2.6
	c0,0.7,0.6,1.3,1.3,1.3c1.1,0.2,2.2,1.4,2.2,2.6l0.7,11.5c0.8,8.2,10,11.1,10,11.1c14.1,5,29.2,0.5,29.2,0.5
	c9.4-2.1,9.8-13.4,9.8-14.2c0.4-5.1,3.4-4.8,3.4-4.8h2.5h2.5c0,0,3.1-0.3,3.4,4.8c0.1,0.8,0.5,12.1,9.8,14.2c0,0,15.1,4.4,29.2-0.5
	c0,0,9.2-2.9,10-11.1l0.7-11.5c0-1.3,1.2-2.4,2.2-2.6c0.7,0,1.3-0.6,1.3-1.3v-2.6C444.5,121.7,443.9,121.1,443.2,121.1z M354,151.6
	c-11.7-0.3-20.9-4.2-21.3-14.2c-0.8-18.8,8-15.2,21.2-15.7c16.1-0.6,22.3,7.3,22.3,15.7C376.2,145.1,373.9,152.1,354,151.6z
	 M437.9,137.4c-0.4,10-9.6,13.9-21.3,14.2c-19.8,0.5-22.2-6.5-22.2-14.2c0-8.3,6.2-16.3,22.3-15.7
	C429.9,122.2,438.7,118.6,437.9,137.4z"/>
<path class="st27" d="M392.6,202.7c0,0-3.2,17.6-6.1,17.6c-2.9,0-7.1-17.4-7.1-17.4s2.3,1.3,6.8,1.3S392.6,202.7,392.6,202.7z"/>
</svg>
